# xmcd CD database file
#
# Track frame offsets:
#	150
#	13917
#	28505
#	44058
#	55937
#	70197
#	83236
#	95641
#	109667
#	124490
#	134171
#	146345
#	160039
#	179231
#	205209
#	223379
#	249800
#	278442
#	300269
#	316046
#	327496
#	339375
#
# Disc length: 4700 seconds
#
# Revision: 1
# Processed by: cddbd v1.5.2PL0 Copyright (c) Steve Scherf et al.
# Submitted via: cdripper 1,0,33,916
#
DISCID=4a125a16
DTITLE=Vaughan Sarah - Street of dreams - CD 2
DYEAR=1900
DGENRE=Jazz
TTITLE0=Ain't misbehavin
TTITLE1=It might as well be spring
TTITLE2=Come rain or come shine
TTITLE3=Nice work if you can get it
TTITLE4=East of the sun
TTITLE5=After hours
TTITLE6=Pinky
TTITLE7=Street of dreams
TTITLE8=Embraceable you
TTITLE9=Perdido
TTITLE10=Shulie a bop
TTITLE11=You hit the spot
TTITLE12=Saturday
TTITLE13=September song
TTITLE14=Lullaby of birdland
TTITLE15=Jim
TTITLE16=April in Paris
TTITLE17=Embraceable you
TTITLE18=Over the rainbow
TTITLE19=Cherokee
TTITLE20=How high the moon
TTITLE21=Somtimes I'm happy
EXTD=
EXTT0=
EXTT1=
EXTT2=
EXTT3=
EXTT4=
EXTT5=
EXTT6=
EXTT7=
EXTT8=
EXTT9=
EXTT10=
EXTT11=
EXTT12=
EXTT13=
EXTT14=
EXTT15=
EXTT16=
EXTT17=
EXTT18=
EXTT19=
EXTT20=
EXTT21=
PLAYORDER=
